mtllib cornell-box.mtl

o light
v -0.649011 2.738497 -0.517968
v 0.650989 2.739334 0.532032
v -0.649011 2.739334 0.532032
v 0.650989 2.738497 -0.517968
vt 0.100000 0.100000
vt 0.100000 0.100000
vt 0.100000 0.100000
vt 0.100000 0.100000
vn 0.0000 -1.0000 0.0008
usemtl White
s off
f 1/1/1 2/2/1 3/3/1
f 1/1/1 4/4/1 2/2/1
o back_wall
v -2.715011 -2.742686 -2.785599
v 2.780989 2.745314 -2.789966
v -2.779011 2.745314 -2.789966
v 2.780989 -2.742686 -2.785599
vt 0.100000 0.100000
vt 0.100000 0.100000
vt 0.100000 0.100000
vt 0.100000 0.100000
vn 0.0000 0.0008 1.0000
usemtl Grey
s off
f 5/5/2 6/6/2 7/7/2
f 5/5/2 8/8/2 6/6/2
o ceiling
v -2.779011 2.745314 -2.789968
v 2.780989 2.749764 2.802032
v -2.779011 2.749764 2.802032
v 2.780989 2.745314 -2.789968
vt 0.100000 0.100000
vt 0.100000 0.100000
vt 0.100000 0.100000
vt 0.100000 0.100000
vn 0.0000 -1.0000 0.0008
usemtl Grey
s off
f 9/9/3 10/10/3 11/11/3
f 9/9/3 12/12/3 10/10/3
o floor
v 2.780989 -2.738233 2.806401
v -2.715011 -2.742686 -2.785599
v -2.747011 -2.738233 2.806401
v 2.780989 -2.742686 -2.785599
vt 0.900000 0.900000
vt 0.100000 0.100000
vt 0.100000 0.900000
vt 0.900000 0.100000
vn 0.0000 1.0000 -0.0008
usemtl Yellow
s off
f 13/13/4 14/14/4 15/15/4
f 13/13/4 16/16/4 14/14/4
o left_wall
v -2.747011 -2.738233 2.806401
v -2.779011 2.745314 -2.789968
v -2.779011 2.749764 2.802032
v -2.715011 -2.742686 -2.785599
vt 0.100000 0.100000
vt 0.100000 0.100000
vt 0.100000 0.100000
vt 0.100000 0.100000
vn 1.0000 0.0058 -0.0000
vn 0.9999 0.0117 0.0057
usemtl Grey
s off
f 17/17/5 18/18/5 19/19/5
f 17/17/6 20/20/6 18/18/6
o right_wall
v 2.780989 -2.738233 2.806401
v 2.780989 2.745314 -2.789968
v 2.780989 -2.742686 -2.785599
v 2.780989 2.749764 2.802032
vt 0.100000 0.100000
vt 0.100000 0.100000
vt 0.100000 0.100000
vt 0.100000 0.100000
vn -1.0000 -0.0000 0.0000
usemtl Grey
s off
f 21/21/7 22/22/7 23/23/7
f 21/21/7 24/24/7 22/22/7
o short_box
v 1.480989 -1.088751 2.155087
v 0.380989 -1.090399 0.085088
v -0.119011 -1.089141 1.665088
v -0.119011 -1.089141 1.665088
v 0.380989 -2.740399 0.086401
v -0.119011 -2.739141 1.666400
v 1.480989 -1.088751 2.155087
v -0.119011 -2.739141 1.666400
v 1.480989 -2.738750 2.156400
v 1.960989 -1.090025 0.555088
v 1.480989 -2.738750 2.156400
v 1.960989 -2.740024 0.556402
v 0.380989 -1.090399 0.085088
v 1.960989 -2.740024 0.556402
v 0.380989 -2.740399 0.086401
v 1.960989 -1.090025 0.555088
v 0.380989 -1.090399 0.085088
v -0.119011 -1.089141 1.665088
v 1.480989 -1.088751 2.155087
v 1.960989 -1.090025 0.555088
vt 0.100000 0.100000
vt 0.100000 0.100000
vt 0.100000 0.100000
vt 0.100000 0.100000
vt 0.100000 0.100000
vt 0.100000 0.100000
vt 0.100000 0.100000
vt 0.100000 0.100000
vt 0.100000 0.100000
vt 0.100000 0.100000
vt 0.100000 0.100000
vt 0.100000 0.100000
vt 0.100000 0.100000
vt 0.100000 0.100000
vt 0.100000 0.100000
vt 0.100000 0.100000
vt 0.100000 0.100000
vt 0.100000 0.100000
vt 0.100000 0.100000
vt 0.100000 0.100000
vt 0.000000 0.000000
vt 0.000000 0.000000
vt 0.000000 0.000000
vn 0.0000 1.0000 -0.0008
vn -0.9534 -0.0002 -0.3017
vn -0.2928 0.0008 0.9562
vn 0.9578 0.0002 0.2873
vn 0.2851 -0.0008 -0.9585
vn 0.0000 -1.0000 0.0008
usemtl Glass
s off
f 25/25/8 26/26/8 27/27/8
f 28/28/9 29/29/9 30/30/9
f 31/31/10 32/32/10 33/33/10
f 34/34/11 35/35/11 36/36/11
f 37/37/12 38/38/12 39/39/12
f 25/25/8 40/40/8 26/26/8
f 28/28/9 41/41/9 29/29/9
f 31/31/10 42/42/10 32/32/10
f 34/34/11 43/43/11 35/35/11
f 37/37/12 44/44/12 38/38/12
f 38/45/8 32/46/8 35/47/8
f 39/39/13 38/45/13 32/46/13
o tall_box
v 0.130989 0.559409 -0.156226
v -1.939011 0.558533 -1.256226
v -1.449011 0.559799 0.333774
v -1.449011 -2.740200 0.336401
v -1.939011 0.558533 -1.256226
v -1.939011 -2.741466 -1.253598
v -1.939011 0.558533 -1.256226
v -0.359011 -2.741864 -1.753598
v -1.939011 -2.741466 -1.253598
v -0.359011 0.558135 -1.756226
v 0.130989 -2.740590 -0.153599
v -0.359011 -2.741864 -1.753598
v -0.359011 0.558135 -1.756226
v -1.449011 0.559799 0.333774
v -0.359011 0.558135 -1.756226
v 0.130989 0.559409 -0.156226
vt 0.100000 0.100000
vt 0.100000 0.100000
vt 0.100000 0.100000
vt 0.100000 0.100000
vt 0.100000 0.100000
vt 0.100000 0.100000
vt 0.100000 0.100000
vt 0.100000 0.100000
vt 0.100000 0.100000
vt 0.100000 0.100000
vt 0.100000 0.100000
vt 0.100000 0.100000
vt 0.100000 0.100000
vt 0.100000 0.100000
vt 0.100000 0.100000
vt 0.100000 0.100000
vn -0.0000 1.0000 -0.0008
vn -0.9556 0.0002 0.2945
vn -0.3017 -0.0008 -0.9534
vn 0.9562 -0.0002 -0.2928
usemtl Grey
s off
f 45/48/14 46/49/14 47/50/14
f 48/51/15 49/52/15 50/53/15
f 51/54/16 52/55/16 53/56/16
f 54/57/17 55/58/17 56/59/17
f 45/48/14 57/60/14 46/49/14
f 48/51/15 58/61/15 49/52/15
f 51/54/16 59/62/16 52/55/16
f 54/57/17 60/63/17 55/58/17
o tall_box_front
v 0.130989 0.559409 -0.156226
v -1.449011 -2.740200 0.336401
v 0.130989 -2.740590 -0.153599
v -1.449011 0.559799 0.333774
vt 0.100000 0.100000
vt 0.100000 0.100000
vt 0.100000 0.100000
vt 0.100000 0.100000
vn 0.2962 0.0008 0.9551
usemtl Grey
s off
f 61/64/18 62/65/18 63/66/18
f 61/64/18 64/67/18 62/65/18
